<mxfile host="app.diagrams.net" modified="2022-05-16T09:53:14.870Z" agent="5.0 (Windows)" etag="6lQow-BGiqtsSC6UHTc9" version="17.5.0" type="github">
  <diagram id="0K3w9jrSddLa7tP7nLt6" name="Page-1">
    <mxGraphModel dx="2862" dy="1912" grid="1" gridSize="10" guides="1" tooltips="1" connect="1" arrows="1" fold="1" page="0" pageScale="1" pageWidth="900" pageHeight="1600" math="0" shadow="0">
      <root>
        <mxCell id="0" />
        <mxCell id="1" parent="0" />
        <mxCell id="MXvwSAOExHT9J9kKjlfs-1" value="&lt;h1&gt;Heading&lt;/h1&gt;&lt;p&gt;Lorem ipsum dolor sit amet, consectetur adipisicing elit, sed do eiusmod tempor incididunt ut labore et dolore magna aliqua.&lt;/p&gt;" style="text;html=1;strokeColor=none;fillColor=none;spacing=5;spacingTop=-20;whiteSpace=wrap;overflow=hidden;rounded=0;" vertex="1" parent="1">
          <mxGeometry x="-560" y="-720" width="230" height="160" as="geometry" />
        </mxCell>
      </root>
    </mxGraphModel>
  </diagram>
</mxfile>
